<mxfile host="Electron" agent="Mozilla/5.0 (X11; Linux x86_64) AppleWebKit/537.36 (KHTML, like Gecko) draw.io/26.1.1 Chrome/132.0.6834.210 Electron/34.3.3 Safari/537.36" version="26.1.1">
  <diagram name="Page-1" id="61H-CEgIV0KXDlU3DQIa">
    <mxGraphModel dx="576" dy="328" grid="1" gridSize="10" guides="1" tooltips="1" connect="1" arrows="1" fold="1" page="1" pageScale="1" pageWidth="850" pageHeight="1100" math="1" shadow="0">
      <root>
        <mxCell id="0" />
        <mxCell id="1" parent="0" />
        <mxCell id="PW8cunaMwpHePTukbWvv-2" value="" style="endArrow=classic;html=1;rounded=0;endFill=1;startArrow=classic;startFill=1;" parent="1" edge="1">
          <mxGeometry width="50" height="50" relative="1" as="geometry">
            <mxPoint x="440" y="470" as="sourcePoint" />
            <mxPoint x="440" y="320" as="targetPoint" />
          </mxGeometry>
        </mxCell>
        <mxCell id="PW8cunaMwpHePTukbWvv-3" value="" style="endArrow=classic;html=1;rounded=0;startArrow=classic;startFill=1;endFill=1;" parent="1" edge="1">
          <mxGeometry width="50" height="50" relative="1" as="geometry">
            <mxPoint x="560" y="440" as="sourcePoint" />
            <mxPoint x="320" y="440" as="targetPoint" />
          </mxGeometry>
        </mxCell>
        <mxCell id="gjFF0ayxSIzkZ_D3UTgW-1" value="&lt;font face=&quot;Times New Roman&quot;&gt;Unit Circle&lt;/font&gt;" style="whiteSpace=wrap;html=1;fillColor=none;strokeColor=none;" vertex="1" parent="1">
          <mxGeometry x="340" y="390" width="60" height="20" as="geometry" />
        </mxCell>
        <mxCell id="gjFF0ayxSIzkZ_D3UTgW-3" value="" style="endArrow=none;html=1;rounded=0;entryX=0.075;entryY=0.236;entryDx=0;entryDy=0;entryPerimeter=0;endFill=1;startFill=0;" edge="1" parent="1">
          <mxGeometry width="50" height="50" relative="1" as="geometry">
            <mxPoint x="440" y="440" as="sourcePoint" />
            <mxPoint x="483.24" y="372" as="targetPoint" />
          </mxGeometry>
        </mxCell>
        <mxCell id="gjFF0ayxSIzkZ_D3UTgW-9" value="&lt;font style=&quot;font-size: 9px;&quot;&gt;\(\ket{\psi}\)&lt;/font&gt;" style="edgeLabel;html=1;align=center;verticalAlign=middle;resizable=0;points=[];labelBackgroundColor=none;" vertex="1" connectable="0" parent="gjFF0ayxSIzkZ_D3UTgW-3">
          <mxGeometry x="0.2403" relative="1" as="geometry">
            <mxPoint x="2" y="14" as="offset" />
          </mxGeometry>
        </mxCell>
        <mxCell id="gjFF0ayxSIzkZ_D3UTgW-6" value="&lt;font face=&quot;Times New Roman&quot;&gt;\(\theta\)&lt;/font&gt;" style="whiteSpace=wrap;html=1;fillColor=none;strokeColor=none;" vertex="1" parent="1">
          <mxGeometry x="449" y="427" width="11" height="10" as="geometry" />
        </mxCell>
        <mxCell id="gjFF0ayxSIzkZ_D3UTgW-7" value="" style="verticalLabelPosition=bottom;verticalAlign=top;html=1;shape=mxgraph.basic.arc;startAngle=0.07880290637021828;endAngle=0.28978533327278766;" vertex="1" parent="1">
          <mxGeometry x="435" y="430" width="15" height="15" as="geometry" />
        </mxCell>
        <mxCell id="gjFF0ayxSIzkZ_D3UTgW-10" value="" style="ellipse;whiteSpace=wrap;html=1;fillColor=none;strokeColor=default;aspect=fixed;" vertex="1" parent="1">
          <mxGeometry x="502.5" y="336" width="4" height="4" as="geometry" />
        </mxCell>
        <mxCell id="gjFF0ayxSIzkZ_D3UTgW-11" value="" style="endArrow=none;html=1;rounded=0;endFill=1;startFill=0;exitX=0.079;exitY=0.238;exitDx=0;exitDy=0;exitPerimeter=0;dashed=1;entryX=0.155;entryY=-0.019;entryDx=0;entryDy=0;entryPerimeter=0;" edge="1" parent="1" target="gjFF0ayxSIzkZ_D3UTgW-13">
          <mxGeometry width="50" height="50" relative="1" as="geometry">
            <mxPoint x="482.9200000000001" y="372.64" as="sourcePoint" />
            <mxPoint x="510" y="330" as="targetPoint" />
          </mxGeometry>
        </mxCell>
        <mxCell id="gjFF0ayxSIzkZ_D3UTgW-13" value="&lt;font style=&quot;font-size: 9px;&quot;&gt;\(\lambda\ket{\psi}\)&lt;/font&gt;" style="whiteSpace=wrap;html=1;strokeColor=none;fillColor=none;" vertex="1" parent="1">
          <mxGeometry x="500.5" y="340" width="21" height="20" as="geometry" />
        </mxCell>
        <mxCell id="gjFF0ayxSIzkZ_D3UTgW-14" value="" style="verticalLabelPosition=bottom;verticalAlign=top;html=1;shape=mxgraph.basic.arc;startAngle=0.75;endAngle=0.25;" vertex="1" parent="1">
          <mxGeometry x="391" y="390" width="100" height="100" as="geometry" />
        </mxCell>
        <mxCell id="gjFF0ayxSIzkZ_D3UTgW-15" value="" style="verticalLabelPosition=bottom;verticalAlign=top;html=1;shape=mxgraph.basic.arc;startAngle=0.6863532544534121;endAngle=0.3194913707725001;dashed=1;dashPattern=1 4;" vertex="1" parent="1">
          <mxGeometry x="391" y="390" width="100" height="100" as="geometry" />
        </mxCell>
      </root>
    </mxGraphModel>
  </diagram>
</mxfile>
